<svg xmlns="http://www.w3.org/2000/svg" width="1120" height="260" viewBox="0 0 1120 260">
  <rect width="1120" height="260" fill="#0A0A0A"/>
  <g font-family="Arial" text-anchor="middle">
    <rect x="30" y="78" width="180" height="90" fill="#141414" stroke="#D4AF37" stroke-width="3"/>
    <text x="120" y="115" fill="#F2F0E4" font-size="22">Prompt / SQL</text>
    <text x="120" y="142" fill="#D4AF37" font-size="15">natural language or query</text>

    <rect x="260" y="78" width="180" height="90" fill="#141414" stroke="#D4AF37" stroke-width="3"/>
    <text x="350" y="115" fill="#F2F0E4" font-size="22">Validation</text>
    <text x="350" y="142" fill="#D4AF37" font-size="15">SELECT only, single statement</text>

    <rect x="490" y="78" width="180" height="90" fill="#141414" stroke="#D4AF37" stroke-width="3"/>
    <text x="580" y="115" fill="#F2F0E4" font-size="22">Mapper</text>
    <text x="580" y="142" fill="#D4AF37" font-size="15">prompt to SQL template</text>

    <rect x="720" y="78" width="180" height="90" fill="#141414" stroke="#D4AF37" stroke-width="3"/>
    <text x="810" y="115" fill="#F2F0E4" font-size="22">Execution</text>
    <text x="810" y="142" fill="#D4AF37" font-size="15">SQLAlchemy session</text>

    <rect x="950" y="78" width="140" height="90" fill="#1E3D59" stroke="#D4AF37" stroke-width="3"/>
    <text x="1020" y="115" fill="#F2F0E4" font-size="22">Result</text>
    <text x="1020" y="142" fill="#D4AF37" font-size="15">rows + count</text>
  </g>
  <g stroke="#D4AF37" stroke-width="4" fill="#D4AF37">
    <line x1="210" y1="123" x2="260" y2="123"/><polygon points="260,123 248,116 248,130"/>
    <line x1="440" y1="123" x2="490" y2="123"/><polygon points="490,123 478,116 478,130"/>
    <line x1="670" y1="123" x2="720" y2="123"/><polygon points="720,123 708,116 708,130"/>
    <line x1="900" y1="123" x2="950" y2="123"/><polygon points="950,123 938,116 938,130"/>
  </g>
</svg>
